<?xml version="1.0" standalone="no"?><svg xmlns="http://www.w3.org/2000/svg" viewBox="0 0 1440 320"><path fill="#5000ca" fill-opacity="0.6" d="M0,192L26.7,192C53.3,192,107,192,160,165.3C213.3,139,267,85,320,85.3C373.3,85,427,139,480,186.7C533.3,235,587,277,640,250.7C693.3,224,747,128,800,122.7C853.3,117,907,203,960,208C1013.3,213,1067,139,1120,138.7C1173.3,139,1227,213,1280,224C1333.3,235,1387,181,1413,154.7L1440,128L1440,0L1413.3,0C1386.7,0,1333,0,1280,0C1226.7,0,1173,0,1120,0C1066.7,0,1013,0,960,0C906.7,0,853,0,800,0C746.7,0,693,0,640,0C586.7,0,533,0,480,0C426.7,0,373,0,320,0C266.7,0,213,0,160,0C106.7,0,53,0,27,0L0,0Z"></path></svg>